<svg width="32" height="32" viewBox="0 0 32 32" fill="none" xmlns="http://www.w3.org/2000/svg">
<rect width="32" height="32" fill="#6F73EE"/>
<path d="M6.39846 14.2308H7.34077V18H6.39846V14.2308ZM8.62231 14.2308H9.68846L8.15923 15.9969L9.76923 18H8.66538L7.07692 16.0238L8.62231 14.2308ZM10.1366 14.2308H11.0466V16.6969C11.0466 16.8872 11.0968 17.0415 11.1973 17.16C11.2978 17.2785 11.4486 17.3377 11.6496 17.3377C11.8543 17.3377 12.0068 17.2785 12.1073 17.16C12.2078 17.0415 12.2581 16.8872 12.2581 16.6969V14.2308H13.1681V16.7615C13.1681 16.9985 13.1286 17.2049 13.0496 17.3808C12.9743 17.5567 12.8666 17.7021 12.7266 17.8169C12.5902 17.9282 12.4286 18.0126 12.2419 18.07C12.0589 18.1274 11.8614 18.1562 11.6496 18.1562C11.4378 18.1562 11.2404 18.1274 11.0573 18.07C10.8743 18.0126 10.7127 17.9282 10.5727 17.8169C10.4363 17.7021 10.3286 17.5567 10.2496 17.3808C10.1743 17.2049 10.1366 16.9985 10.1366 16.7615V14.2308ZM15.8075 16.6377V15.9377H17.7136C17.7316 16.2392 17.7011 16.521 17.6221 16.7831C17.5431 17.0451 17.4211 17.2767 17.2559 17.4777C17.0908 17.6787 16.8844 17.8367 16.6367 17.9515C16.389 18.0628 16.1054 18.1185 15.7859 18.1185C15.4844 18.1185 15.208 18.0718 14.9567 17.9785C14.7054 17.8815 14.4883 17.7451 14.3052 17.5692C14.1221 17.3897 13.9785 17.1779 13.8744 16.9338C13.7739 16.6862 13.7236 16.4133 13.7236 16.1154C13.7236 15.8174 13.7757 15.5482 13.8798 15.3077C13.9839 15.0636 14.1311 14.8554 14.3213 14.6831C14.5116 14.5108 14.7342 14.3779 14.989 14.2846C15.2439 14.1913 15.5203 14.1446 15.8183 14.1446C16.0839 14.1446 16.3226 14.1823 16.5344 14.2577C16.7462 14.3331 16.9329 14.439 17.0944 14.5754C17.2595 14.7082 17.4013 14.8626 17.5198 15.0385L16.7121 15.4585C16.6259 15.3077 16.5093 15.1838 16.3621 15.0869C16.2185 14.9864 16.0372 14.9362 15.8183 14.9362C15.6101 14.9362 15.418 14.9828 15.2421 15.0762C15.0698 15.1695 14.9316 15.3041 14.8275 15.48C14.727 15.6523 14.6767 15.8641 14.6767 16.1154C14.6767 16.3631 14.7252 16.5785 14.8221 16.7615C14.9226 16.941 15.0572 17.081 15.2259 17.1815C15.3983 17.2785 15.5957 17.3269 15.8183 17.3269C15.9547 17.3269 16.0785 17.3108 16.1898 17.2785C16.3011 17.2426 16.3962 17.1941 16.4752 17.1331C16.5542 17.0685 16.6206 16.9949 16.6744 16.9123C16.7318 16.8262 16.7767 16.7346 16.809 16.6377H15.8075ZM19.073 16.1154C19.073 16.3379 19.1161 16.5354 19.2022 16.7077C19.292 16.8764 19.4158 17.0092 19.5738 17.1062C19.7353 17.2031 19.9238 17.2515 20.1392 17.2515C20.351 17.2515 20.5358 17.2031 20.6938 17.1062C20.8553 17.0092 20.9792 16.8764 21.0653 16.7077C21.1551 16.5354 21.1999 16.3379 21.1999 16.1154C21.1999 15.8928 21.1569 15.6972 21.0707 15.5285C20.9845 15.3562 20.8625 15.2215 20.7045 15.1246C20.5466 15.0277 20.3581 14.9792 20.1392 14.9792C19.9238 14.9792 19.7353 15.0277 19.5738 15.1246C19.4158 15.2215 19.292 15.3562 19.2022 15.5285C19.1161 15.6972 19.073 15.8928 19.073 16.1154ZM18.1092 16.1154C18.1092 15.8246 18.1594 15.559 18.2599 15.3185C18.364 15.0779 18.5076 14.8697 18.6907 14.6938C18.8738 14.5179 19.0892 14.3833 19.3369 14.29C19.5845 14.1931 19.852 14.1446 20.1392 14.1446C20.4299 14.1446 20.6974 14.1931 20.9415 14.29C21.1892 14.3833 21.4045 14.5179 21.5876 14.6938C21.7707 14.8697 21.9125 15.0779 22.013 15.3185C22.1135 15.559 22.1638 15.8246 22.1638 16.1154C22.1638 16.4062 22.1135 16.6736 22.013 16.9177C21.9161 17.1618 21.7761 17.3736 21.593 17.5531C21.4135 17.7326 21.1999 17.8726 20.9522 17.9731C20.7045 18.07 20.4335 18.1185 20.1392 18.1185C19.8412 18.1185 19.5684 18.07 19.3207 17.9731C19.073 17.8726 18.8576 17.7326 18.6745 17.5531C18.4951 17.3736 18.3551 17.1618 18.2545 16.9177C18.1576 16.6736 18.1092 16.4062 18.1092 16.1154ZM23.4953 16.1154C23.4953 16.3379 23.5384 16.5354 23.6246 16.7077C23.7143 16.8764 23.8382 17.0092 23.9961 17.1062C24.1576 17.2031 24.3461 17.2515 24.5615 17.2515C24.7733 17.2515 24.9582 17.2031 25.1161 17.1062C25.2776 17.0092 25.4015 16.8764 25.4876 16.7077C25.5774 16.5354 25.6223 16.3379 25.6223 16.1154C25.6223 15.8928 25.5792 15.6972 25.493 15.5285C25.4069 15.3562 25.2848 15.2215 25.1269 15.1246C24.9689 15.0277 24.7805 14.9792 24.5615 14.9792C24.3461 14.9792 24.1576 15.0277 23.9961 15.1246C23.8382 15.2215 23.7143 15.3562 23.6246 15.5285C23.5384 15.6972 23.4953 15.8928 23.4953 16.1154ZM22.5315 16.1154C22.5315 15.8246 22.5817 15.559 22.6823 15.3185C22.7864 15.0779 22.9299 14.8697 23.113 14.6938C23.2961 14.5179 23.5115 14.3833 23.7592 14.29C24.0069 14.1931 24.2743 14.1446 24.5615 14.1446C24.8523 14.1446 25.1197 14.1931 25.3638 14.29C25.6115 14.3833 25.8269 14.5179 26.0099 14.6938C26.193 14.8697 26.3348 15.0779 26.4353 15.3185C26.5358 15.559 26.5861 15.8246 26.5861 16.1154C26.5861 16.4062 26.5358 16.6736 26.4353 16.9177C26.3384 17.1618 26.1984 17.3736 26.0153 17.5531C25.8358 17.7326 25.6223 17.8726 25.3746 17.9731C25.1269 18.07 24.8558 18.1185 24.5615 18.1185C24.2635 18.1185 23.9907 18.07 23.743 17.9731C23.4953 17.8726 23.2799 17.7326 23.0969 17.5531C22.9174 17.3736 22.7774 17.1618 22.6769 16.9177C22.5799 16.6736 22.5315 16.4062 22.5315 16.1154Z" fill="white"/>
</svg>
