<svg width="136" height="45" viewBox="0 0 136 45" fill="none" xmlns="http://www.w3.org/2000/svg">
<g clip-path="url(#clip0_22983_1322)">
<path d="M124.359 0.00014625H11.1835C10.771 0.00014625 10.3634 0.00014625 9.95197 0.00239625C9.60756 0.00464625 9.26588 0.0111825 8.91816 0.0166837C8.16273 0.0255733 7.40909 0.092032 6.66377 0.215482C5.9195 0.34162 5.19854 0.579426 4.52528 0.920857C3.85284 1.26518 3.23842 1.71258 2.7043 2.24685C2.16737 2.77961 1.7198 3.39541 1.3788 4.07058C1.03686 4.74439 0.799752 5.46645 0.675675 6.21181C0.550419 6.95623 0.483017 7.70923 0.474075 8.46406C0.463635 8.80899 0.462532 9.15506 0.457031 9.50003V35.5036C0.462532 35.8529 0.463635 36.1913 0.474075 36.5407C0.48302 37.2955 0.550421 38.0485 0.675675 38.7928C0.799409 39.5386 1.03653 40.2611 1.3788 40.9352C1.71965 41.6082 2.16728 42.2215 2.7043 42.7513C3.23639 43.2879 3.85122 43.7356 4.52528 44.0773C5.19853 44.4196 5.91941 44.6589 6.66377 44.787C7.40921 44.9094 8.16278 44.9759 8.91816 44.9859C9.26588 44.9935 9.60756 44.9979 9.95197 44.9979C10.3634 45.0001 10.771 45.0001 11.1835 45.0001H124.359C124.763 45.0001 125.174 45.0001 125.578 44.9979C125.921 44.9979 126.272 44.9935 126.615 44.9859C127.369 44.9764 128.121 44.9099 128.865 44.787C129.612 44.658 130.335 44.4188 131.012 44.0773C131.685 43.7354 132.3 43.2877 132.831 42.7513C133.367 42.2194 133.816 41.6065 134.161 40.9352C134.5 40.2606 134.735 39.5382 134.857 38.7928C134.983 38.0484 135.052 37.2956 135.066 36.5407C135.07 36.1913 135.07 35.8529 135.07 35.5036C135.079 35.0949 135.079 34.6884 135.079 34.273V10.7283C135.079 10.3163 135.079 9.90761 135.07 9.50003C135.07 9.15506 135.07 8.80899 135.066 8.46402C135.052 7.70912 134.983 6.95629 134.857 6.21177C134.735 5.46684 134.5 4.74484 134.161 4.07053C133.466 2.71724 132.365 1.61567 131.012 0.920756C130.335 0.580159 129.612 0.342417 128.865 0.215381C128.122 0.0913869 127.369 0.024905 126.615 0.0165262C126.272 0.0110362 125.921 0.00444375 125.578 0.00225C125.174 0 124.763 0 124.359 0V0.00014625Z" fill="white"/>
<path d="M28.5767 22.3758C28.5893 21.3993 28.8487 20.4419 29.3307 19.5926C29.8127 18.7434 30.5017 18.0298 31.3336 17.5184C30.8052 16.7636 30.108 16.1425 29.2974 15.7043C28.4869 15.2661 27.5854 15.0229 26.6645 14.9941C24.6999 14.7879 22.7954 16.1697 21.7943 16.1697C20.7739 16.1697 19.2326 15.0146 17.5728 15.0487C16.4992 15.0834 15.4529 15.3956 14.5359 15.9549C13.6189 16.5142 12.8623 17.3014 12.34 18.24C10.0775 22.1573 11.7651 27.9143 13.9325 31.0808C15.0168 32.6313 16.2841 34.3632 17.9424 34.3018C19.5651 34.2345 20.1711 33.2671 22.1299 33.2671C24.0704 33.2671 24.639 34.3018 26.3309 34.2628C28.0722 34.2345 29.1692 32.7054 30.2155 31.1402C30.9947 30.0354 31.5942 28.8144 31.9919 27.5223C30.9803 27.0945 30.117 26.3783 29.5097 25.4631C28.9024 24.5479 28.5779 23.4742 28.5767 22.3758Z" fill="#282739"/>
<path d="M25.3801 12.9118C26.3295 11.772 26.7972 10.3071 26.684 8.82812C25.2335 8.98047 23.8937 9.67369 22.9315 10.7697C22.461 11.3051 22.1007 11.928 21.8711 12.6027C21.6415 13.2775 21.5472 13.9909 21.5935 14.7021C22.319 14.7096 23.0367 14.5523 23.6926 14.2422C24.3485 13.9321 24.9255 13.4772 25.3801 12.9118Z" fill="#282739"/>
<path d="M48.0469 30.5326H42.7218L41.443 34.3086H39.1875L44.2313 20.3384H46.5747L51.6185 34.3086H49.3246L48.0469 30.5326ZM43.2733 28.7902H47.4943L45.4135 22.662H45.3552L43.2733 28.7902Z" fill="#282739"/>
<path d="M62.5124 29.2164C62.5124 32.3815 60.8183 34.4151 58.2617 34.4151C57.6141 34.449 56.9701 34.2998 56.4033 33.9846C55.8365 33.6695 55.37 33.2011 55.057 32.6331H55.0087V37.678H52.918V24.1231H54.9417V25.8172H54.9801C55.3074 25.2519 55.7819 24.786 56.353 24.4689C56.924 24.1518 57.5704 23.9955 58.2233 24.0165C60.8084 24.0165 62.5124 26.06 62.5124 29.2164ZM60.3634 29.2164C60.3634 27.1542 59.2978 25.7985 57.6718 25.7985C56.0744 25.7985 54.9999 27.1828 54.9999 29.2164C54.9999 31.2686 56.0744 32.643 57.6718 32.643C59.2978 32.643 60.3634 31.2972 60.3634 29.2164H60.3634Z" fill="#282739"/>
<path d="M73.7238 29.2164C73.7238 32.3815 72.0292 34.4151 69.4727 34.4151C68.8251 34.449 68.181 34.2998 67.6142 33.9846C67.0475 33.6695 66.5809 33.2011 66.268 32.6331H66.2196V37.678H64.1289V24.1231H66.1526V25.8172H66.191C66.5184 25.2519 66.9928 24.786 67.5639 24.4689C68.135 24.1518 68.7813 23.9955 69.4342 24.0165C72.0193 24.0165 73.7238 26.06 73.7238 29.2164ZM71.5744 29.2164C71.5744 27.1542 70.5087 25.7985 68.8827 25.7985C67.2853 25.7985 66.2108 27.1828 66.2108 29.2164C66.2108 31.2686 67.2853 32.643 68.8827 32.643C70.5087 32.643 71.5744 31.2972 71.5744 29.2164Z" fill="#282739"/>
<path d="M81.1324 30.4162C81.2873 31.8016 82.6331 32.7112 84.4722 32.7112C86.2344 32.7112 87.5022 31.8015 87.5022 30.5524C87.5022 29.468 86.7376 28.8188 84.9271 28.3738L83.1165 27.9376C80.5512 27.318 79.3603 26.1183 79.3603 24.1715C79.3603 21.7611 81.4609 20.1055 84.4426 20.1055C87.3957 20.1055 89.4194 21.7611 89.4875 24.1715H87.377C87.2507 22.7773 86.0982 21.9358 84.414 21.9358C82.7298 21.9358 81.5773 22.7872 81.5773 24.0265C81.5773 25.0142 82.3134 25.5953 84.1141 26.0402L85.6532 26.4182C88.5196 27.096 89.7094 28.2474 89.7094 30.2909C89.7094 32.9045 87.6286 34.5415 84.3173 34.5415C81.2191 34.5415 79.1273 32.943 78.9922 30.4161L81.1324 30.4162Z" fill="#282739"/>
<path d="M94.2222 21.7129V24.1233H96.1591V25.7789H94.2222V31.394C94.2222 32.2664 94.61 32.6729 95.4614 32.6729C95.6914 32.6688 95.9209 32.6527 96.1492 32.6245V34.2702C95.7664 34.3418 95.3773 34.3742 94.9879 34.3669C92.9258 34.3669 92.1216 33.5924 92.1216 31.617V25.7789H90.6406V24.1233H92.1216V21.7129H94.2222Z" fill="#282739"/>
<path d="M97.2812 29.2165C97.2812 26.0118 99.1687 23.998 102.112 23.998C105.065 23.998 106.944 26.0118 106.944 29.2165C106.944 32.4301 105.075 34.4351 102.112 34.4351C99.15 34.4351 97.2812 32.43 97.2812 29.2165ZM104.813 29.2165C104.813 27.0182 103.806 25.7207 102.112 25.7207C100.418 25.7207 99.4104 27.0281 99.4104 29.2165C99.4104 31.4237 100.418 32.7113 102.112 32.7113C103.806 32.7113 104.813 31.4237 104.813 29.2165H104.813Z" fill="#282739"/>
<path d="M108.664 24.123H110.658V25.8566H110.706C110.841 25.3152 111.159 24.8367 111.605 24.5016C112.051 24.1664 112.599 23.9951 113.156 24.0164C113.397 24.0156 113.638 24.0417 113.873 24.0944V26.05C113.569 25.957 113.251 25.9144 112.933 25.9237C112.63 25.9113 112.327 25.9649 112.046 26.0806C111.765 26.1964 111.512 26.3716 111.305 26.5942C111.098 26.8168 110.942 27.0816 110.847 27.3704C110.752 27.6591 110.72 27.965 110.755 28.267V34.3084H108.664L108.664 24.123Z" fill="#282739"/>
<path d="M123.512 31.3171C123.231 33.1661 121.43 34.4351 119.126 34.4351C116.163 34.4351 114.324 32.4498 114.324 29.2649C114.324 26.0701 116.173 23.998 119.038 23.998C121.856 23.998 123.629 25.9338 123.629 29.0221V29.7384H116.435V29.8647C116.401 30.2396 116.448 30.6172 116.572 30.9725C116.696 31.3279 116.894 31.6527 117.154 31.9256C117.413 32.1985 117.727 32.4131 118.075 32.5552C118.424 32.6973 118.799 32.7636 119.175 32.7498C119.669 32.796 120.165 32.6816 120.588 32.4235C121.012 32.1654 121.341 31.7773 121.527 31.3171L123.512 31.3171ZM116.445 28.2772H121.537C121.555 27.9402 121.504 27.6029 121.387 27.2865C121.269 26.9702 121.087 26.6816 120.852 26.4388C120.618 26.1961 120.336 26.0045 120.023 25.876C119.711 25.7475 119.376 25.6849 119.038 25.6921C118.698 25.6901 118.36 25.7555 118.045 25.8846C117.73 26.0137 117.444 26.2039 117.203 26.4442C116.962 26.6846 116.771 26.9703 116.64 27.2849C116.51 27.5995 116.444 27.9368 116.445 28.2772V28.2772Z" fill="#282739"/>
<path d="M41.786 12.6601H42.6836C42.8381 12.6793 42.9949 12.6663 43.1442 12.622C43.2934 12.5776 43.4319 12.5028 43.5508 12.4022C43.6697 12.3017 43.7665 12.1776 43.835 12.0378C43.9036 11.898 43.9425 11.7456 43.9492 11.59C43.9492 10.9709 43.4834 10.571 42.6935 10.571C42.5352 10.5489 42.374 10.5587 42.2196 10.5999C42.0652 10.6411 41.9205 10.7128 41.7943 10.8108C41.668 10.9088 41.5626 11.0311 41.4844 11.1705C41.4062 11.3099 41.3567 11.4636 41.3389 11.6224H40.3534C40.3703 11.3341 40.4465 11.0523 40.577 10.7947C40.7076 10.537 40.8898 10.309 41.1123 10.1249C41.3348 9.9407 41.5929 9.80431 41.8704 9.72419C42.1479 9.64407 42.4389 9.62193 42.7253 9.65915C44.047 9.65915 44.9776 10.3991 44.9776 11.4642C44.9807 11.821 44.8613 12.1681 44.6393 12.4475C44.4174 12.727 44.1063 12.9218 43.7581 12.9995V13.0786C44.1709 13.097 44.5598 13.278 44.8395 13.5822C45.1193 13.8863 45.2673 14.2889 45.2511 14.7019C45.2206 14.9988 45.131 15.2865 44.9878 15.5484C44.8446 15.8102 44.6506 16.0408 44.4171 16.2267C44.1836 16.4126 43.9153 16.55 43.628 16.6308C43.3407 16.7117 43.0402 16.7343 42.744 16.6975C42.4472 16.738 42.1453 16.7183 41.8563 16.6396C41.5673 16.5609 41.2971 16.4248 41.0618 16.2394C40.8265 16.0541 40.631 15.8232 40.4868 15.5607C40.3426 15.2981 40.2528 15.0092 40.2227 14.7112H41.2235C41.2839 15.3534 41.8739 15.7676 42.744 15.7676C43.6141 15.7676 44.1821 15.3023 44.1821 14.6464C44.1821 13.9812 43.6471 13.5714 42.7122 13.5714H41.786V12.6601Z" fill="#282739"/>
<path d="M46.3867 15.102C46.3867 14.1902 47.0668 13.6645 48.2709 13.5898L49.6431 13.5107V13.0734C49.6431 12.5384 49.2904 12.2363 48.606 12.2363C48.0479 12.2363 47.6622 12.4412 47.5502 12.7993H46.5823C46.6844 11.9292 47.504 11.3711 48.6532 11.3711C49.9232 11.3711 50.6395 12.0033 50.6395 13.0734V16.5347H49.676V15.8228H49.5969C49.4364 16.0781 49.2109 16.2863 48.9436 16.426C48.6763 16.5658 48.3766 16.6321 48.0753 16.6181C47.8627 16.6402 47.6477 16.6176 47.4444 16.5515C47.241 16.4855 47.0537 16.3776 46.8947 16.2347C46.7356 16.0919 46.6082 15.9173 46.5207 15.7222C46.4332 15.5271 46.3876 15.3159 46.3867 15.102ZM49.6431 14.6692V14.2457L48.406 14.3248C47.7083 14.3714 47.3919 14.6088 47.3919 15.0553C47.3919 15.5113 47.7874 15.7766 48.3313 15.7766C48.4906 15.7927 48.6516 15.7766 48.8046 15.7293C48.9576 15.682 49.0996 15.6043 49.222 15.501C49.3443 15.3977 49.4447 15.2708 49.517 15.1279C49.5894 14.985 49.6322 14.829 49.6431 14.6692Z" fill="#282739"/>
<path d="M53.2927 12.3103V16.5345H52.293V11.4688H55.6285V12.3102L53.2927 12.3103Z" fill="#282739"/>
<path d="M61.6878 14.0005C61.6878 15.61 60.8737 16.6191 59.5949 16.6191C59.2809 16.6405 58.9674 16.5718 58.6912 16.4211C58.415 16.2703 58.1877 16.0438 58.0359 15.7682H57.9568V18.2198H56.957V11.4698H57.9194V12.307H57.9941C58.1487 12.0217 58.379 11.7847 58.6597 11.6222C58.9405 11.4596 59.2607 11.3778 59.585 11.3858C60.8737 11.3858 61.6878 12.3904 61.6878 14.0005ZM60.6594 14.0005C60.6594 12.9304 60.153 12.2839 59.3059 12.2839C58.4644 12.2839 57.9381 12.9442 57.9381 14.0049C57.9381 15.0607 58.4644 15.7215 59.3015 15.7215C60.153 15.7215 60.6594 15.075 60.6594 14.0005Z" fill="#282739"/>
<path d="M63.0203 18.3489V17.4882C63.1285 17.5019 63.2375 17.5081 63.3466 17.5068C63.5596 17.5226 63.7709 17.4592 63.94 17.3287C64.1091 17.1982 64.224 17.0099 64.2628 16.7999L64.3375 16.5532L62.5039 11.4688H63.5926L64.8627 15.4925H64.9418L66.2074 11.4688H67.2676L65.3791 16.7438C64.9462 17.9765 64.4672 18.372 63.4345 18.372C63.351 18.372 63.1137 18.3627 63.0203 18.3489Z" fill="#282739"/>
<path d="M68.0469 15.0971H69.0422C69.14 15.5437 69.5586 15.7766 70.1442 15.7766C70.81 15.7766 71.2186 15.4833 71.2186 15.0273C71.2186 14.539 70.8517 14.3061 70.1442 14.3061H69.3861V13.5294H70.131C70.7352 13.5294 71.0429 13.297 71.0429 12.8735C71.0429 12.5016 70.7451 12.2176 70.131 12.2176C69.5718 12.2176 69.1631 12.4549 69.0982 12.8548H68.1348C68.2068 12.3953 68.4563 11.9824 68.8296 11.705C69.2029 11.4275 69.6702 11.3076 70.131 11.3711C71.3351 11.3711 72.0239 11.9155 72.0239 12.7713C72.0296 13.0097 71.9532 13.2427 71.8076 13.4315C71.662 13.6202 71.4561 13.7533 71.2241 13.8084V13.8875C71.5003 13.9232 71.7537 14.0589 71.9364 14.269C72.119 14.4791 72.2182 14.749 72.2151 15.0274C72.2151 15.9904 71.3955 16.6275 70.1442 16.6275C69.0378 16.6275 68.1392 16.1205 68.0469 15.0971Z" fill="#282739"/>
<path d="M73.6562 16.5345V11.4688H74.6472V14.9531H74.7263L77.0609 11.4688H78.0519V16.5346H77.0609V13.0316H76.9862L74.6472 16.5346L73.6562 16.5345Z" fill="#282739"/>
<path d="M83.5077 12.3112H81.9125V16.5355H80.9117V12.3112H79.3164V11.4697H83.5077V12.3112Z" fill="#282739"/>
<path d="M88.8938 15.167C88.7576 15.6299 88.463 16.0303 88.0616 16.2982C87.6602 16.5661 87.1774 16.6844 86.6976 16.6325C86.3639 16.6413 86.0322 16.5774 85.7257 16.4452C85.4191 16.313 85.145 16.1156 84.9223 15.8669C84.6997 15.6181 84.5338 15.3238 84.4363 15.0045C84.3388 14.6852 84.3119 14.3485 84.3575 14.0178C84.3131 13.686 84.3405 13.3486 84.4378 13.0284C84.535 12.7081 84.7 12.4125 84.9215 12.1615C85.143 11.9106 85.4158 11.7101 85.7215 11.5738C86.0271 11.4374 86.3585 11.3683 86.6932 11.3712C88.1028 11.3712 88.9542 12.3342 88.9542 13.9249V14.2738H85.3771V14.3298C85.3612 14.5158 85.3845 14.703 85.4453 14.8794C85.5061 15.0558 85.6032 15.2176 85.7302 15.3542C85.8573 15.4909 86.0115 15.5995 86.1831 15.673C86.3546 15.7465 86.5396 15.7833 86.7262 15.7811C86.9652 15.8096 87.2073 15.7665 87.4217 15.6572C87.6361 15.5478 87.8131 15.3772 87.9303 15.1669L88.8938 15.167ZM85.377 13.5344H87.9347C87.9473 13.3645 87.9243 13.1938 87.867 13.0333C87.8098 12.8728 87.7196 12.726 87.6023 12.6024C87.4849 12.4789 87.3431 12.3812 87.1858 12.3157C87.0285 12.2502 86.8592 12.2183 86.6888 12.2221C86.5159 12.2197 86.3442 12.2521 86.1839 12.3172C86.0237 12.3823 85.8781 12.4789 85.7558 12.6012C85.6336 12.7236 85.537 12.8692 85.472 13.0295C85.4069 13.1897 85.3747 13.3614 85.3771 13.5344H85.377Z" fill="#282739"/>
<path d="M93.1328 11.4688H95.4169C96.4078 11.4688 96.989 11.9708 96.989 12.7569C96.9905 13.0063 96.9064 13.2487 96.7506 13.4435C96.5948 13.6383 96.3768 13.7736 96.1332 13.8269V13.906C96.429 13.9247 96.7064 14.0563 96.908 14.2737C97.1096 14.491 97.22 14.7775 97.2164 15.0739C97.2164 15.9577 96.5517 16.5345 95.4399 16.5345H93.1328V11.4688ZM94.1238 12.2361V13.5479H95.1148C95.719 13.5479 96.0079 13.3155 96.0079 12.8871C96.0079 12.4921 95.7564 12.2361 95.2257 12.2361L94.1238 12.2361ZM94.1238 14.2829V15.7672H95.3093C95.9003 15.7672 96.2167 15.5062 96.2167 15.0272C96.2167 14.5202 95.8586 14.2829 95.184 14.2829L94.1238 14.2829Z" fill="#282739"/>
</g>
<defs>
<clipPath id="clip0_22983_1322">
<rect width="134.622" height="45" fill="white" transform="translate(0.457031)"/>
</clipPath>
</defs>
</svg>
