<svg width="20" height="20" viewBox="0 0 20 20" fill="none" xmlns="http://www.w3.org/2000/svg">
<g clip-path="url(#clip0_22940_6608)">
<path d="M11.9043 1.62256C12.2008 1.49315 12.5463 1.62884 12.6758 1.92529L14.7646 6.70752H18.6162C19.0429 6.70759 19.4391 6.89783 19.7031 7.229C19.9623 7.55422 20.0581 7.97259 19.9658 8.37646L17.9082 17.3608C17.7646 17.9882 17.2096 18.4263 16.5586 18.4263H3.44141C2.79043 18.4263 2.23543 17.9882 2.0918 17.3608L0.0341797 8.37646C-0.0581246 7.97261 0.0377039 7.55421 0.296875 7.229C0.560928 6.89781 0.957159 6.70759 1.38379 6.70752H5.23535L7.32422 1.92529C7.45368 1.62876 7.79923 1.49315 8.0957 1.62256C8.39216 1.75204 8.52769 2.09755 8.39844 2.39404L6.51465 6.70752H13.4854L11.6016 2.39404C11.4723 2.09755 11.6078 1.752 11.9043 1.62256ZM1.38379 7.87939C1.29081 7.87948 1.23662 7.92965 1.21289 7.95947C1.18729 7.99155 1.16064 8.04529 1.17676 8.11572L3.2334 17.0991C3.25398 17.189 3.34191 17.2544 3.44141 17.2544H16.5586C16.6579 17.2544 16.7458 17.1898 16.7666 17.1001L18.8232 8.11572C18.8394 8.04534 18.8127 7.99159 18.7871 7.95947C18.7634 7.92965 18.7092 7.87945 18.6162 7.87939H15.2764L15.4297 8.23096C15.5592 8.52752 15.4235 8.87295 15.127 9.00244C15.0506 9.03579 14.9708 9.05225 14.8926 9.05225C14.6669 9.05211 14.4516 8.92066 14.3555 8.70068L13.9971 7.87939H6.00293L5.64453 8.70068C5.54834 8.92062 5.33309 9.05214 5.10742 9.05225C5.0291 9.05225 4.94938 9.0358 4.87305 9.00244C4.57651 8.8729 4.44083 8.52751 4.57031 8.23096L4.72363 7.87939H1.38379Z" fill="#6F73EE"/>
<path d="M11.9043 1.62256C12.2008 1.49315 12.5463 1.62884 12.6758 1.92529L14.7646 6.70752H18.6162C19.0429 6.70759 19.4391 6.89783 19.7031 7.229C19.9623 7.55422 20.0581 7.97259 19.9658 8.37646L17.9082 17.3608C17.7646 17.9882 17.2096 18.4263 16.5586 18.4263H3.44141C2.79043 18.4263 2.23543 17.9882 2.0918 17.3608L0.0341797 8.37646C-0.0581246 7.97261 0.0377039 7.55421 0.296875 7.229C0.560928 6.89781 0.957159 6.70759 1.38379 6.70752H5.23535L7.32422 1.92529C7.45368 1.62876 7.79923 1.49315 8.0957 1.62256C8.39216 1.75204 8.52769 2.09755 8.39844 2.39404L6.51465 6.70752H13.4854L11.6016 2.39404C11.4723 2.09755 11.6078 1.752 11.9043 1.62256ZM1.38379 7.87939C1.29081 7.87948 1.23662 7.92965 1.21289 7.95947C1.18729 7.99155 1.16064 8.04529 1.17676 8.11572L3.2334 17.0991C3.25398 17.189 3.34191 17.2544 3.44141 17.2544H16.5586C16.6579 17.2544 16.7458 17.1898 16.7666 17.1001L18.8232 8.11572C18.8394 8.04534 18.8127 7.99159 18.7871 7.95947C18.7634 7.92965 18.7092 7.87945 18.6162 7.87939H15.2764L15.4297 8.23096C15.5592 8.52752 15.4235 8.87295 15.127 9.00244C15.0506 9.03579 14.9708 9.05225 14.8926 9.05225C14.6669 9.05211 14.4516 8.92066 14.3555 8.70068L13.9971 7.87939H6.00293L5.64453 8.70068C5.54834 8.92062 5.33309 9.05214 5.10742 9.05225C5.0291 9.05225 4.94938 9.0358 4.87305 9.00244C4.57651 8.8729 4.44083 8.52751 4.57031 8.23096L4.72363 7.87939H1.38379Z" stroke="#6F73EE"/>
<path d="M6.48438 10.4189C6.80801 10.4189 7.07031 10.6813 7.07031 11.0049V15.3018C7.07031 15.6254 6.80797 15.8877 6.48438 15.8877C6.16078 15.8877 5.89844 15.6254 5.89844 15.3018V11.0049C5.89844 10.6813 6.16078 10.4189 6.48438 10.4189Z" fill="#6F73EE"/>
<path d="M6.48438 10.4189C6.80801 10.4189 7.07031 10.6813 7.07031 11.0049V15.3018C7.07031 15.6254 6.80797 15.8877 6.48438 15.8877C6.16078 15.8877 5.89844 15.6254 5.89844 15.3018V11.0049C5.89844 10.6813 6.16078 10.4189 6.48438 10.4189Z" stroke="#6F73EE"/>
<path d="M10 10.4189C10.3236 10.4189 10.5859 10.6813 10.5859 11.0049V15.3018C10.5859 15.6254 10.3236 15.8877 10 15.8877C9.67641 15.8877 9.41406 15.6254 9.41406 15.3018V11.0049C9.41406 10.6813 9.67641 10.4189 10 10.4189Z" fill="#6F73EE"/>
<path d="M10 10.4189C10.3236 10.4189 10.5859 10.6813 10.5859 11.0049V15.3018C10.5859 15.6254 10.3236 15.8877 10 15.8877C9.67641 15.8877 9.41406 15.6254 9.41406 15.3018V11.0049C9.41406 10.6813 9.67641 10.4189 10 10.4189Z" stroke="#6F73EE"/>
<path d="M13.5156 10.4189C13.8392 10.4189 14.1015 10.6813 14.1016 11.0049V15.3018C14.1016 15.6254 13.8392 15.8877 13.5156 15.8877C13.192 15.8877 12.9297 15.6254 12.9297 15.3018V11.0049C12.9297 10.6813 13.192 10.4189 13.5156 10.4189Z" fill="#6F73EE"/>
<path d="M13.5156 10.4189C13.8392 10.4189 14.1015 10.6813 14.1016 11.0049V15.3018C14.1016 15.6254 13.8392 15.8877 13.5156 15.8877C13.192 15.8877 12.9297 15.6254 12.9297 15.3018V11.0049C12.9297 10.6813 13.192 10.4189 13.5156 10.4189Z" stroke="#6F73EE"/>
</g>
<defs>
<clipPath id="clip0_22940_6608">
<rect width="20" height="20" fill="white"/>
</clipPath>
</defs>
</svg>
