<svg width="152" height="45" viewBox="0 0 152 45" fill="none" xmlns="http://www.w3.org/2000/svg">
<g clip-path="url(#clip0_22983_1254)">
<path d="M145.745 44.8882H5.81967C2.74131 44.8882 0.222656 42.3695 0.222656 39.2912V5.70908C0.222656 2.63073 2.74131 0.112068 5.81967 0.112068H145.745C148.823 0.112068 151.342 2.63073 151.342 5.70908V39.2912C151.342 42.3695 148.823 44.8882 145.745 44.8882Z" fill="white"/>
<path d="M119.926 33.6934H122.015V19.6996H119.926V33.6934ZM138.74 24.7405L136.346 30.8075H136.274L133.789 24.7405H131.539L135.265 33.2203L133.141 37.9371H135.32L141.063 24.7405H138.74ZM126.895 32.104C126.209 32.104 125.256 31.762 125.256 30.9155C125.256 29.8354 126.445 29.4213 127.47 29.4213C128.389 29.4213 128.82 29.6194 129.378 29.8897C129.216 31.1858 128.1 32.104 126.895 32.104ZM127.146 24.4343C125.634 24.4343 124.068 25.1007 123.42 26.5769L125.274 27.3509C125.67 26.5769 126.408 26.3246 127.182 26.3246C128.262 26.3246 129.361 26.9731 129.378 28.1253V28.2691C129 28.0531 128.191 27.7291 127.2 27.7291C125.202 27.7291 123.167 28.8271 123.167 30.8796C123.167 32.752 124.806 33.9584 126.642 33.9584C128.046 33.9584 128.82 33.3283 129.307 32.5903H129.378V33.6703H131.395V28.305C131.395 25.8209 129.541 24.4343 127.146 24.4343ZM114.237 26.444H111.267V21.6472H114.237C115.799 21.6472 116.686 22.9401 116.686 24.0455C116.686 25.13 115.799 26.444 114.237 26.444ZM114.184 19.6996H109.179V33.6934H111.267V28.3916H114.184C116.499 28.3916 118.774 26.7155 118.774 24.0455C118.774 21.3756 116.499 19.6996 114.184 19.6996ZM86.8915 32.1066C85.4485 32.1066 84.2403 30.8984 84.2403 29.239C84.2403 27.5621 85.4485 26.3356 86.8915 26.3356C88.3162 26.3356 89.4343 27.5621 89.4343 29.239C89.4343 30.8984 88.3162 32.1066 86.8915 32.1066ZM89.29 25.524H89.2178C88.7491 24.9651 87.8469 24.4602 86.711 24.4602C84.3304 24.4602 82.1485 26.552 82.1485 29.239C82.1485 31.9081 84.3304 33.982 86.711 33.982C87.8469 33.982 88.7491 33.4769 89.2178 32.9002H89.29V33.5854C89.29 35.4071 88.3162 36.3809 86.7472 36.3809C85.4669 36.3809 84.6733 35.4609 84.3484 34.6856L82.5272 35.443C83.0502 36.7053 84.4389 38.2563 86.7472 38.2563C89.1999 38.2563 91.2738 36.8133 91.2738 33.2968V24.7487H89.29V25.524ZM92.7163 33.6934H94.8083V19.6991H92.7163V33.6934ZM97.8922 29.0768C97.8381 27.2372 99.3169 26.2997 100.381 26.2997C101.211 26.2997 101.914 26.7142 102.148 27.3098L97.8922 29.0768ZM104.384 27.4899C103.988 26.4256 102.779 24.4602 100.309 24.4602C97.856 24.4602 95.8183 26.3898 95.8183 29.2211C95.8183 31.8902 97.8381 33.982 100.543 33.982C102.725 33.982 103.988 32.6475 104.511 31.8722L102.888 30.7899C102.347 31.5836 101.607 32.1066 100.543 32.1066C99.4791 32.1066 98.7218 31.6195 98.2347 30.664L104.6 28.0308L104.384 27.4899ZM53.6663 25.921V27.9407H58.4993C58.355 29.0768 57.9763 29.9063 57.3992 30.4834C56.6961 31.187 55.5959 31.9623 53.6663 31.9623C50.6906 31.9623 48.3644 29.5638 48.3644 26.5883C48.3644 23.6127 50.6906 21.2139 53.6663 21.2139C55.2714 21.2139 56.4433 21.8452 57.3091 22.6568L58.7337 21.2322C57.5256 20.0778 55.9203 19.1941 53.6663 19.1941C49.5904 19.1941 46.1641 22.5125 46.1641 26.5883C46.1641 30.664 49.5904 33.982 53.6663 33.982C55.8666 33.982 57.5256 33.261 58.8238 31.9081C60.1584 30.5735 60.5734 28.6981 60.5734 27.1834C60.5734 26.7142 60.5374 26.2818 60.4649 25.921H53.6663ZM66.0681 32.1066C64.625 32.1066 63.3806 30.9163 63.3806 29.2211C63.3806 27.5078 64.625 26.3356 66.0681 26.3356C67.5105 26.3356 68.755 27.5078 68.755 29.2211C68.755 30.9163 67.5105 32.1066 66.0681 32.1066ZM66.0681 24.4602C63.4348 24.4602 61.2887 26.4619 61.2887 29.2211C61.2887 31.9623 63.4348 33.982 66.0681 33.982C68.7008 33.982 70.8469 31.9623 70.8469 29.2211C70.8469 26.4619 68.7008 24.4602 66.0681 24.4602ZM76.4933 32.1066C75.0508 32.1066 73.8063 30.9163 73.8063 29.2211C73.8063 27.5078 75.0508 26.3356 76.4933 26.3356C77.9359 26.3356 79.1803 27.5078 79.1803 29.2211C79.1803 30.9163 77.9359 32.1066 76.4933 32.1066ZM76.4933 24.4602C73.8601 24.4602 71.7144 26.4619 71.7144 29.2211C71.7144 31.9623 73.8601 33.982 76.4933 33.982C79.1261 33.982 81.2722 31.9623 81.2722 29.2211C81.2722 26.4619 79.1261 24.4602 76.4933 24.4602Z" fill="#282739"/>
<path d="M11.988 36.3682L11.9048 36.2886C11.579 35.9439 11.3867 35.4087 11.3867 34.7157V34.8788V10.1221C11.3867 10.1198 11.3867 10.1182 11.3867 10.1164C11.3867 10.1185 11.3867 10.1203 11.3867 10.1225V10.2861C11.3867 9.53563 11.6109 8.97033 11.9866 8.63138L25.8558 22.5002L11.988 36.3682ZM11.3867 10.115C11.3867 10.0534 11.3884 9.99347 11.3915 9.93447C11.3884 9.99302 11.3867 10.0534 11.3867 10.115ZM11.3915 9.93179C11.3915 9.93101 11.3915 9.93011 11.3919 9.92921C11.3915 9.93011 11.3915 9.93101 11.3915 9.93179ZM11.3919 9.92395C11.3919 9.9235 11.3919 9.92306 11.3919 9.92261C11.3919 9.92306 11.3919 9.9235 11.3919 9.92395Z" fill="url(#paint0_linear_22983_1254)"/>
<path d="M30.4778 27.2891L30.5833 27.2292L36.0604 24.1171C36.5826 23.8203 36.9306 23.4604 37.1042 23.0795C36.9311 23.4604 36.5829 23.8207 36.0604 24.1176L30.5833 27.2296L30.4778 27.2891ZM30.4792 27.1251L25.8555 22.5006L30.4787 17.8769L36.0604 21.0479C36.7692 21.4507 37.1672 21.9698 37.2336 22.5001C37.2336 22.5006 37.2336 22.5015 37.2336 22.5023C37.1672 23.0314 36.7692 23.5509 36.0604 23.9536L30.4792 27.1251Z" fill="url(#paint1_linear_22983_1254)"/>
<path d="M12.9749 36.8965C12.5875 36.8965 12.2494 36.7706 11.9858 36.5327L11.9863 36.5322C12.2499 36.7701 12.5884 36.8965 12.9758 36.8965C13.0094 36.8965 13.0436 36.8956 13.0781 36.8939C13.0431 36.8956 13.0085 36.8965 12.9749 36.8965ZM12.9754 36.7325C12.588 36.7329 12.2499 36.6066 11.9863 36.3687V36.3683L25.8541 22.5004L30.4778 27.1249L14.2294 36.3569C13.7799 36.6118 13.354 36.7325 12.9754 36.7325ZM11.9824 36.5297C11.9578 36.5074 11.9338 36.4838 11.9102 36.4592L11.9824 36.5297Z" fill="url(#paint2_linear_22983_1254)"/>
<path d="M25.8575 22.5005L11.9883 8.63165C12.2519 8.39422 12.5895 8.26829 12.9765 8.26829C13.3561 8.26829 13.7823 8.38941 14.2328 8.64474L30.4807 17.8768L25.8575 22.5005ZM30.5853 17.7724L14.2328 8.48131C13.7823 8.22586 13.3561 8.10474 12.9765 8.10474C12.9747 8.10474 12.9735 8.10474 12.9717 8.10474C12.9739 8.10474 12.9756 8.10474 12.9783 8.10474C13.357 8.10474 13.7828 8.22541 14.2328 8.48086L30.5853 17.7724Z" fill="url(#paint3_linear_22983_1254)"/>
<path d="M13.0813 36.894C13.4332 36.8739 13.8229 36.7528 14.2326 36.5206L30.4796 27.289L14.2326 36.5206C13.8232 36.7532 13.4332 36.8739 13.0813 36.894ZM11.989 36.5328L11.9855 36.5298C11.9867 36.5307 11.9881 36.5319 11.989 36.5328ZM11.9133 36.4594L11.9062 36.4524V36.452C11.9089 36.4546 11.9111 36.4571 11.9133 36.4594Z" fill="white"/>
<path d="M30.4766 27.2891L30.582 27.2292L30.4766 27.2891Z" fill="url(#paint4_linear_22983_1254)"/>
<path d="M12.979 36.8965C12.5915 36.8965 12.253 36.7701 11.9894 36.5322L11.989 36.5327C11.9881 36.5318 11.9867 36.5306 11.9855 36.5297L11.9133 36.4592C11.9111 36.457 11.9089 36.4544 11.9062 36.4519L11.9894 36.3687C12.253 36.6066 12.5911 36.7329 12.9785 36.7325C13.3571 36.7325 13.783 36.6118 14.2326 36.3569L30.481 27.1249L30.5851 27.229L30.4796 27.2889L14.2326 36.5205C13.8229 36.7526 13.4332 36.8738 13.0813 36.8939C13.0467 36.8956 13.0126 36.8965 12.979 36.8965Z" fill="url(#paint5_linear_22983_1254)"/>
<path d="M11.9048 36.4526C11.579 36.108 11.3867 35.5728 11.3867 34.8798V34.8793C11.3867 35.5728 11.579 36.1075 11.9048 36.4522V36.4526Z" fill="white"/>
<path d="M11.9048 36.4521C11.579 36.1075 11.3867 35.5727 11.3867 34.8793V34.7162C11.3867 35.4092 11.579 35.9444 11.9048 36.2891L11.988 36.3686L11.9048 36.4521Z" fill="url(#paint6_linear_22983_1254)"/>
<path d="M11.9062 36.4521L11.9894 36.3686V36.369L11.9062 36.4521Z" fill="url(#paint7_linear_22983_1254)"/>
<path d="M37.1055 23.0791C37.1916 22.8901 37.2349 22.696 37.2349 22.5018C37.2349 22.5015 37.2349 22.501 37.2349 22.501C37.2349 22.6956 37.1916 22.8897 37.1055 23.0791Z" fill="white"/>
<path d="M30.5846 27.229L30.4805 27.1249L36.0617 23.9534C36.7705 23.5508 37.1685 23.0312 37.235 22.5021C37.235 22.6963 37.1916 22.8904 37.1056 23.0794C36.9319 23.4602 36.5839 23.8201 36.0617 24.117L30.5846 27.229Z" fill="url(#paint8_linear_22983_1254)"/>
<path d="M37.2328 22.5005V22.5C37.2324 21.9145 36.8411 21.329 36.0596 20.8847L30.5825 17.7727H30.582L30.5825 17.7724L36.0596 20.8843C36.842 21.3286 37.2337 21.9149 37.2328 22.5005Z" fill="#282739"/>
<path d="M37.2354 22.5C37.1689 21.9696 36.771 21.4506 36.0621 21.0478L30.4805 17.8768L30.5846 17.7727H30.585L36.0621 20.8847C36.8436 21.329 37.2349 21.9144 37.2354 22.5Z" fill="url(#paint9_linear_22983_1254)"/>
<path d="M11.3867 10.1167C11.3867 10.1163 11.3867 10.1158 11.3867 10.1154C11.3867 10.1158 11.3867 10.1163 11.3867 10.1167ZM11.3915 9.9348C11.3915 9.9339 11.3915 9.93301 11.3915 9.93211C11.3915 9.93301 11.3915 9.9339 11.3915 9.9348ZM11.3919 9.92954C11.3919 9.92774 11.3919 9.92607 11.3919 9.92427C11.3919 9.92607 11.3919 9.92774 11.3919 9.92954ZM11.3919 9.92293C11.4567 8.77297 12.082 8.10872 12.9665 8.1048C12.583 8.10704 12.249 8.23297 11.9875 8.4686V8.46816L11.9844 8.47129C11.9568 8.49614 11.9306 8.52245 11.9048 8.54954C11.6109 8.86039 11.4256 9.32607 11.3919 9.92293Z" fill="#282739"/>
<path d="M11.3867 10.2861V10.1226C11.3867 10.1203 11.3867 10.1186 11.3867 10.1164C11.3867 10.116 11.3867 10.1155 11.3867 10.1151C11.3867 10.0534 11.3884 9.99307 11.3915 9.93453C11.3915 9.93363 11.3915 9.93274 11.3915 9.93184C11.3915 9.93106 11.3915 9.93016 11.3919 9.92927C11.3919 9.92748 11.3919 9.9258 11.3919 9.92401C11.3919 9.92356 11.3919 9.92311 11.3919 9.92266C11.4256 9.3258 11.6109 8.86012 11.9048 8.54927L11.9866 8.63143C11.6109 8.97039 11.3867 9.53568 11.3867 10.2861ZM11.9844 8.47102L11.9875 8.46789C11.9866 8.46923 11.9853 8.47012 11.9844 8.47102Z" fill="url(#paint10_linear_22983_1254)"/>
<path d="M30.4805 17.877L14.2326 8.6449C13.7821 8.38957 13.3559 8.26845 12.9763 8.26845C12.5893 8.26845 12.2517 8.39438 11.9881 8.6318L11.9062 8.54964C11.9321 8.52255 11.9583 8.49624 11.9858 8.47139C11.9867 8.4705 11.9881 8.4696 11.989 8.46871C12.2505 8.23307 12.5845 8.10714 12.968 8.1049C12.9689 8.1049 12.9701 8.1049 12.9715 8.1049C12.9733 8.1049 12.9745 8.1049 12.9763 8.1049C13.3559 8.1049 13.7821 8.22602 14.2326 8.48147L30.5851 17.7725L30.5846 17.7728L30.4805 17.877Z" fill="url(#paint11_linear_22983_1254)"/>
<path d="M48.9121 11.2685C48.9252 12.3311 48.7123 13.1881 48.2749 13.8388H51.6703V8.7726H48.9121V11.2685ZM47.3642 16.0894H46.5391V13.8388H47.1958C47.7773 13.3376 48.0616 12.4815 48.0498 11.2685V7.94749H52.5339V13.8388H53.2839V16.0894H52.4584V14.6639H47.3642V16.0894Z" fill="#282739"/>
<path d="M48.9147 11.2684L48.8027 11.2698L48.8036 11.3602C48.8032 12.3655 48.5933 13.1684 48.1844 13.7761L48.0673 13.9506H51.7848V8.66054H48.8027V11.2693V11.2698L48.9147 11.2684H49.0266V8.88442H51.5609V13.7267H48.2775V13.8387L48.3703 13.9008C48.8105 13.2457 49.0275 12.3956 49.0275 11.3602L49.0266 11.2671L48.9147 11.2684H49.0266H48.9147ZM47.3667 16.0892V15.9773H46.6536V13.9506H47.1984H47.2399L47.2714 13.9235C47.8765 13.4014 48.1648 12.5317 48.1648 11.3418L48.1643 11.2675V11.2684V8.05931H52.4245V13.9506H53.1745V15.9773H52.5729V14.6638V14.5518H47.2548V16.0892H47.3667V15.9773V16.0892H47.4787V14.7757H52.349V16.0892V16.2012H53.2865H53.3984V13.7267H52.6484V7.83542H47.9404V11.2689V11.2693L47.9409 11.3418C47.9404 12.5002 47.6597 13.2948 47.1253 13.7534L47.1984 13.8387V13.7267H46.5416H46.4297V16.2012H47.3667H47.4787V16.0892H47.3667Z" fill="#282739"/>
<path d="M55.7282 13.2332C56.2257 13.7365 56.8336 13.9879 57.5529 13.9879C58.2721 13.9879 58.8809 13.7365 59.3771 13.2332C59.8748 12.7299 60.1239 12.0866 60.1239 11.3053C60.1239 10.5239 59.8748 9.8806 59.3771 9.37732C58.8809 8.87404 58.2721 8.62262 57.5529 8.62262C56.8336 8.62262 56.2257 8.87404 55.7282 9.37732C55.2318 9.8806 54.9826 10.5239 54.9826 11.3053C54.9826 12.0866 55.2318 12.7299 55.7282 13.2332ZM60.0156 13.7955C59.3553 14.4745 58.5345 14.8135 57.5529 14.8135C56.5712 14.8135 55.75 14.4745 55.091 13.7955C54.4308 13.1172 54.1016 12.287 54.1016 11.3053C54.1016 10.3236 54.4308 9.49318 55.091 8.81504C55.75 8.1359 56.5712 7.79661 57.5529 7.79661C58.5288 7.79661 59.3479 8.13769 60.0111 8.81941C60.6736 9.50112 61.005 10.3297 61.005 11.3053C61.005 12.287 60.6749 13.1172 60.0156 13.7955Z" fill="#282739"/>
<path d="M55.7268 13.2336L55.6472 13.3123C56.1627 13.8357 56.8059 14.1016 57.5516 14.1002C58.2966 14.1016 58.9412 13.8357 59.4553 13.3123C59.9744 12.7884 60.2354 12.1106 60.2346 11.3056C60.2354 10.5007 59.9744 9.82287 59.4553 9.29899C58.9412 8.77556 58.2966 8.5097 57.5516 8.51104C56.8059 8.5097 56.1627 8.77556 55.6472 9.29899C55.1295 9.82287 54.8685 10.5007 54.8694 11.3056C54.8685 12.1106 55.1295 12.7884 55.6472 13.3123L55.7268 13.2336L55.8069 13.1549C55.3319 12.6716 55.0945 12.0638 55.0932 11.3056C55.0945 10.5475 55.3319 9.93962 55.8069 9.45638H55.8064C56.2856 8.97324 56.858 8.73627 57.5516 8.73492C58.2446 8.73627 58.8183 8.97324 59.2962 9.45638L59.2979 9.45817L59.2962 9.45638C59.7723 9.93962 60.0094 10.5475 60.0107 11.3056C60.0094 12.0638 59.7723 12.6716 59.2962 13.1549C58.8183 13.638 58.2446 13.875 57.5516 13.8763C56.858 13.875 56.2856 13.638 55.8064 13.1549L55.7268 13.2336ZM60.0143 13.7959L59.9342 13.7181C59.2927 14.3757 58.5074 14.7006 57.5516 14.7019C56.5953 14.7006 55.8103 14.3757 55.1697 13.7181C54.5295 13.0582 54.2134 12.2624 54.2122 11.3056C54.2134 10.3489 54.5295 9.55309 55.1697 8.89321C55.8103 8.23556 56.5953 7.91026 57.5516 7.90892C58.5017 7.91026 59.2849 8.2369 59.9299 8.89802C60.5726 9.56093 60.8905 10.3555 60.8918 11.3056C60.8905 12.2624 60.5735 13.0582 59.9342 13.7181L60.0143 13.7959L60.0946 13.8737C60.7733 13.1767 61.1165 12.3122 61.1156 11.3056C61.1165 10.3048 60.7724 9.44205 60.0903 8.74197C59.4081 8.03921 58.5538 7.6838 57.5516 7.68503C56.5441 7.6838 55.687 8.03753 55.0093 8.73761V8.73716C54.3293 9.43455 53.9874 10.2991 53.9883 11.3056C53.9874 12.3122 54.3293 13.1767 55.0093 13.8741V13.8737C55.687 14.5737 56.5441 14.9267 57.5516 14.9258C58.5586 14.9267 59.4156 14.5737 60.0946 13.8737L60.0143 13.7959Z" fill="#282739"/>
<path d="M65.3488 14.8135C64.3606 14.8135 63.532 14.479 62.8629 13.8095C62.1926 13.1405 61.8594 12.3057 61.8594 11.3053C61.8594 10.3047 62.1926 9.47001 62.8629 8.80105C63.532 8.13154 64.3606 7.79661 65.3488 7.79661C66.3611 7.79661 67.184 8.16265 67.8158 8.89418L67.2146 9.47616C66.759 8.90683 66.1358 8.62262 65.3488 8.62262C64.6164 8.62262 63.9984 8.86967 63.4956 9.36377C62.9919 9.85788 62.7405 10.5051 62.7405 11.3053C62.7405 12.1054 62.9919 12.7531 63.4956 13.2468C63.9984 13.7409 64.6164 13.9879 65.3488 13.9879C66.1555 13.9879 66.843 13.663 67.4126 13.0128L68.0126 13.6127C67.7057 13.9818 67.3217 14.2743 66.8582 14.4894C66.396 14.7055 65.8919 14.8135 65.3488 14.8135Z" fill="#282739"/>
<path d="M65.3474 14.8138V14.7019C64.3842 14.7006 63.5905 14.3792 62.9407 13.7307C62.2914 13.0813 61.9709 12.2812 61.97 11.3056C61.9709 10.3301 62.2914 9.52992 62.9407 8.88056C63.5905 8.23164 64.3842 7.91026 65.3474 7.90892C66.3331 7.91071 67.1167 8.25963 67.7296 8.96754L67.8145 8.89455L67.7367 8.81407L67.1355 9.39649L67.2133 9.47653L67.3007 9.40657C66.8258 8.81104 66.1608 8.50936 65.3474 8.51104C64.5896 8.51015 63.9377 8.77041 63.416 9.2841C62.8891 9.7997 62.6258 10.4826 62.6272 11.3056C62.6258 12.1286 62.8891 12.8125 63.416 13.3272C63.9377 13.8409 64.5896 14.1011 65.3474 14.1002C66.1848 14.1016 66.9102 13.7578 67.4952 13.087L67.4113 13.0132L67.3321 13.0923L67.9321 13.6922L68.0113 13.6131L67.9251 13.5419C67.6287 13.8977 67.2596 14.1794 66.8096 14.3884C66.3623 14.5973 65.8761 14.7015 65.3474 14.7019V14.8138V14.9258C65.9054 14.9258 66.4267 14.8147 66.9041 14.5913C67.3816 14.37 67.7796 14.067 68.0974 13.6848L68.1625 13.6066L67.4905 12.934L67.4057 12.8492L67.327 12.9393C66.7733 13.5694 66.1236 13.875 65.3474 13.8763C64.64 13.875 64.0571 13.6415 63.573 13.1671H63.5726C63.0916 12.6948 62.852 12.0831 62.8511 11.3056C62.852 10.5282 63.0916 9.91735 63.5726 9.44418H63.573C64.0571 8.96977 64.64 8.73627 65.3474 8.73492C66.1079 8.73672 66.6889 9.00347 67.1258 9.54649L67.2027 9.64276L67.8923 8.97504L67.9684 8.90149L67.8993 8.82156C67.2491 8.06597 66.3864 7.68381 65.3474 7.68504C64.3338 7.68414 63.4702 8.03272 62.7824 8.72227C62.0911 9.41048 61.7448 10.2807 61.7461 11.3056C61.7448 12.3306 62.0911 13.2008 62.7824 13.8894C63.4702 14.5785 64.3338 14.9267 65.3474 14.9258V14.8138Z" fill="#282739"/>
<path d="M71.505 14.6636H70.6415V8.77227H68.7656V7.94715H73.3809V8.77227H71.505V14.6636Z" fill="#282739"/>
<path d="M71.5037 14.6639V14.552H70.7521V8.66069H68.8762V8.05946H73.2676V8.66069H71.3917V14.6639H71.5037V14.552V14.6639H71.6156V8.88457H73.4915V7.94752V7.83558H68.6523V8.77263V8.88457H70.5282V14.7759H71.5037H71.6156V14.6639H71.5037Z" fill="#282739"/>
<path d="M75.2558 12.0364H77.4876L76.3901 9.00712H76.3529L75.2558 12.0364ZM73.3516 14.6636L75.8847 7.94715H76.8593L79.392 14.6636H78.4357L77.788 12.8432H74.9651L74.3083 14.6636H73.3516Z" fill="#282739"/>
<path d="M75.2536 12.0368V12.1488H77.6451L76.4661 8.89554H76.3507H76.272L75.0941 12.1488H75.2536V12.0368L75.359 12.0753L76.4562 9.04554L76.3507 9.00748V9.11942H76.3879V9.00748L76.2825 9.04554L77.3258 11.9249H75.2536V12.0368L75.359 12.0753L75.2536 12.0368ZM73.3494 14.6639L73.4543 14.7033L75.9598 8.05946H76.7792L79.2279 14.552H78.5122L77.8649 12.7316H74.8842L74.2273 14.552H73.3494V14.6639L73.4543 14.7033L73.3494 14.6639V14.7759H74.3061H74.3848L75.0416 12.9555H77.7071L78.3543 14.7759H79.3898H79.5515L76.9345 7.83558H75.8825H75.805L73.1875 14.7759H73.3494V14.6639Z" fill="#282739"/>
<path d="M80.3672 14.6636V7.94715H85.2265V14.6636H84.363V8.77227H81.2299V14.6636H80.3672Z" fill="#282739"/>
<path d="M80.3658 14.6639H80.4778V8.05946H85.1132V14.552H84.4736V8.66069H81.1166V14.552H80.3658V14.6639H80.4778H80.3658V14.7759H81.2286H81.3405V8.88457H84.2497V14.7759H85.2252H85.3371V7.83558H80.2539V14.7759H80.3658V14.6639Z" fill="#282739"/>
<path d="M86.7656 14.6636V7.94715H87.6285V10.8266H90.9867V7.94715H91.8498V14.6636H90.9867V11.6333H87.6285V14.6636H86.7656Z" fill="#282739"/>
<path d="M86.7643 14.6639H86.8762V8.05946H87.5152L87.5147 10.9389H91.0973V8.05946H91.7365V14.552H91.0968L91.0973 11.5218H87.5147V14.552H86.7643V14.6639H86.8762H86.7643V14.7759H87.6271H87.7391V11.7457H90.873V14.7759H91.8484H91.9603V7.83558H90.9853H90.873V10.715H87.7386L87.7391 7.83558H86.7643H86.6523V14.7759H86.7643V14.6639Z" fill="#282739"/>
<path d="M94.5914 13.2332C95.0891 13.7365 95.6964 13.9879 96.4157 13.9879C97.1355 13.9879 97.7441 13.7365 98.2405 13.2332C98.7376 12.7299 98.9873 12.0866 98.9873 11.3053C98.9873 10.5239 98.7376 9.8806 98.2405 9.37732C97.7441 8.87404 97.1355 8.62262 96.4157 8.62262C95.6964 8.62262 95.0891 8.87404 94.5914 9.37732C94.0952 9.8806 93.8459 10.5239 93.8459 11.3053C93.8459 12.0866 94.0952 12.7299 94.5914 13.2332ZM98.8789 13.7955C98.2187 14.4745 97.3979 14.8135 96.4157 14.8135C95.4346 14.8135 94.6134 14.4745 93.9544 13.7955C93.2942 13.1172 92.9648 12.287 92.9648 11.3053C92.9648 10.3236 93.2942 9.49318 93.9544 8.81504C94.6134 8.1359 95.4346 7.79661 96.4157 7.79661C97.3922 7.79661 98.2107 8.13769 98.8745 8.81941C99.537 9.50112 99.8684 10.3297 99.8684 11.3053C99.8684 12.287 99.5383 13.1172 98.8789 13.7955Z" fill="#282739"/>
<path d="M94.5901 13.2336L94.5105 13.3123C95.0261 13.8357 95.6693 14.1016 96.4144 14.1002C97.1599 14.1016 97.804 13.8357 98.3187 13.3123C98.8378 12.7884 99.0988 12.1106 99.0979 11.3056C99.0988 10.5007 98.8378 9.82287 98.3187 9.29899C97.804 8.77556 97.1599 8.5097 96.4144 8.51104C95.6693 8.5097 95.0261 8.77556 94.5105 9.29899C93.9928 9.82287 93.7318 10.5007 93.7326 11.3056C93.7318 12.1106 93.9928 12.7884 94.5105 13.3123L94.5901 13.2336L94.6697 13.1549C94.1948 12.6716 93.9574 12.0638 93.9565 11.3056C93.9574 10.5475 94.1948 9.93962 94.6697 9.45638C95.149 8.97324 95.7214 8.73627 96.4144 8.73492C97.108 8.73627 97.6817 8.97324 98.1595 9.45638L98.1626 9.45996L98.1595 9.45638C98.6353 9.93962 98.8727 10.5475 98.8741 11.3056C98.8727 12.0638 98.6353 12.6716 98.1595 13.1549C97.6817 13.638 97.108 13.875 96.4144 13.8763C95.7214 13.875 95.149 13.638 94.6697 13.1549L94.5901 13.2336ZM98.8775 13.7959L98.797 13.7181C98.1556 14.3757 97.3707 14.7006 96.4144 14.7019C95.4585 14.7006 94.6736 14.3757 94.0331 13.7181L94.03 13.7146L94.0331 13.7181C93.3925 13.0582 93.0763 12.2624 93.0754 11.3056C93.0763 10.3489 93.3925 9.55309 94.0331 8.89321C94.6736 8.23556 95.4585 7.91026 96.4144 7.90892C97.3647 7.91026 98.1478 8.2369 98.7931 8.89802C99.4359 9.56093 99.7538 10.3555 99.7551 11.3056C99.7538 12.2624 99.4368 13.0582 98.797 13.7181L98.8775 13.7959L98.958 13.8737C99.6366 13.1767 99.9799 12.3122 99.979 11.3056C99.9799 10.3048 99.6354 9.44205 98.9537 8.74197C98.2715 8.03921 97.4166 7.6838 96.4144 7.68503C95.4074 7.6838 94.5504 8.03753 93.8726 8.73761V8.73716C93.1926 9.43455 92.8507 10.2991 92.8516 11.3056C92.8507 12.3122 93.1926 13.1767 93.8726 13.8741V13.8737C94.5504 14.5737 95.4074 14.9267 96.4144 14.9258C97.4219 14.9267 98.2789 14.5737 98.958 13.8737L98.8775 13.7959Z" fill="#282739"/>
<path d="M103.398 14.6636V7.94715H104.26V10.8266H107.619V7.94715H108.483V14.6636H107.619V11.6333H104.26V14.6636H103.398Z" fill="#282739"/>
<path d="M103.397 14.6639H103.509V8.05946H104.147V10.9389H107.729V8.05946H108.369V14.552H107.729V11.5218H104.147V14.552H103.397V14.6639H103.509H103.397V14.7759H104.259H104.371V11.7457H107.505V14.7759H108.481H108.593V7.83558H107.617H107.505V10.715H104.371V7.83558H103.397H103.285V14.7759H103.397V14.6639Z" fill="#282739"/>
<path d="M111.361 12.0364H113.593L112.496 9.00712H112.459L111.361 12.0364ZM109.457 14.6636L111.99 7.94715H112.965L115.498 14.6636H114.541L113.894 12.8432H111.07L110.414 14.6636H109.457Z" fill="#282739"/>
<path d="M111.359 12.0368V12.1488H113.752L112.573 8.89554H112.458H112.379L111.2 12.1488H111.359V12.0368L111.465 12.0753L112.563 9.04554L112.458 9.00748V9.11942H112.494V9.00748L112.389 9.04554L113.433 11.9249H111.359V12.0368L111.465 12.0753L111.359 12.0368ZM109.455 14.6639L109.561 14.7033L112.066 8.05946H112.886L115.334 14.552H114.619L113.971 12.7316H110.99L110.333 14.552H109.455V14.6639L109.561 14.7033L109.455 14.6639V14.7759H110.412H110.491L111.148 12.9555H113.813L114.46 14.7759H115.497H115.658L113.041 7.83558H111.988H111.911L109.293 14.7759H109.455V14.6639Z" fill="#282739"/>
</g>
<defs>
<linearGradient id="paint0_linear_22983_1254" x1="24.626" y1="9.86093" x2="5.83964" y2="28.6473" gradientUnits="userSpaceOnUse">
<stop stop-color="#00A0FF"/>
<stop offset="0.00657445" stop-color="#00A1FF"/>
<stop offset="0.2601" stop-color="#00BEFF"/>
<stop offset="0.5122" stop-color="#00D2FF"/>
<stop offset="0.7604" stop-color="#00DFFF"/>
<stop offset="1" stop-color="#00E3FF"/>
</linearGradient>
<linearGradient id="paint1_linear_22983_1254" x1="38.0973" y1="22.5013" x2="11.0111" y2="22.5013" gradientUnits="userSpaceOnUse">
<stop stop-color="#FFE000"/>
<stop offset="0.4087" stop-color="#FFBD00"/>
<stop offset="0.7754" stop-color="#FFA500"/>
<stop offset="1" stop-color="#FF9C00"/>
</linearGradient>
<linearGradient id="paint2_linear_22983_1254" x1="28.013" y1="25.0698" x2="2.53727" y2="50.5455" gradientUnits="userSpaceOnUse">
<stop stop-color="#FF3A44"/>
<stop offset="1" stop-color="#C31162"/>
</linearGradient>
<linearGradient id="paint3_linear_22983_1254" x1="8.39354" y1="0.308774" x2="19.7695" y2="11.6847" gradientUnits="userSpaceOnUse">
<stop stop-color="#32A071"/>
<stop offset="0.0685" stop-color="#2DA771"/>
<stop offset="0.4762" stop-color="#15CF74"/>
<stop offset="0.8009" stop-color="#06E775"/>
<stop offset="1" stop-color="#00F076"/>
</linearGradient>
<linearGradient id="paint4_linear_22983_1254" x1="38.0961" y1="22.5016" x2="11.0095" y2="22.5016" gradientUnits="userSpaceOnUse">
<stop stop-color="#CCB300"/>
<stop offset="0.4087" stop-color="#CC9700"/>
<stop offset="0.7754" stop-color="#CC8400"/>
<stop offset="1" stop-color="#CC7D00"/>
</linearGradient>
<linearGradient id="paint5_linear_22983_1254" x1="28.0161" y1="25.0698" x2="2.54042" y2="50.5455" gradientUnits="userSpaceOnUse">
<stop stop-color="#CC2E36"/>
<stop offset="1" stop-color="#9C0E4E"/>
</linearGradient>
<linearGradient id="paint6_linear_22983_1254" x1="24.626" y1="9.8614" x2="5.83966" y2="28.6478" gradientUnits="userSpaceOnUse">
<stop stop-color="#008DE0"/>
<stop offset="0.00657445" stop-color="#008DE0"/>
<stop offset="0.2601" stop-color="#00A7E0"/>
<stop offset="0.5122" stop-color="#00B8E0"/>
<stop offset="0.7604" stop-color="#00C4E0"/>
<stop offset="1" stop-color="#00C7E0"/>
</linearGradient>
<linearGradient id="paint7_linear_22983_1254" x1="28.0166" y1="25.0704" x2="2.54159" y2="50.5468" gradientUnits="userSpaceOnUse">
<stop stop-color="#E0333C"/>
<stop offset="1" stop-color="#AB0F56"/>
</linearGradient>
<linearGradient id="paint8_linear_22983_1254" x1="38.0986" y1="22.5011" x2="11.0123" y2="22.5011" gradientUnits="userSpaceOnUse">
<stop stop-color="#E0C500"/>
<stop offset="0.4087" stop-color="#E0A600"/>
<stop offset="0.7754" stop-color="#E09100"/>
<stop offset="1" stop-color="#E08900"/>
</linearGradient>
<linearGradient id="paint9_linear_22983_1254" x1="38.099" y1="22.5011" x2="11.0128" y2="22.5011" gradientUnits="userSpaceOnUse">
<stop stop-color="#FFE840"/>
<stop offset="0.4087" stop-color="#FFCE40"/>
<stop offset="0.7754" stop-color="#FFBC40"/>
<stop offset="1" stop-color="#FFB540"/>
</linearGradient>
<linearGradient id="paint10_linear_22983_1254" x1="24.626" y1="9.86098" x2="5.83964" y2="28.6474" gradientUnits="userSpaceOnUse">
<stop stop-color="#40B8FF"/>
<stop offset="0.00657445" stop-color="#40B9FF"/>
<stop offset="0.2601" stop-color="#40CEFF"/>
<stop offset="0.5122" stop-color="#40DDFF"/>
<stop offset="0.7604" stop-color="#40E7FF"/>
<stop offset="1" stop-color="#40EAFF"/>
</linearGradient>
<linearGradient id="paint11_linear_22983_1254" x1="8.39334" y1="0.308929" x2="19.7693" y2="11.6849" gradientUnits="userSpaceOnUse">
<stop stop-color="#65B895"/>
<stop offset="0.0685" stop-color="#62BD95"/>
<stop offset="0.4762" stop-color="#50DB97"/>
<stop offset="0.8009" stop-color="#44ED98"/>
<stop offset="1" stop-color="#40F498"/>
</linearGradient>
<clipPath id="clip0_22983_1254">
<rect width="151.455" height="45" fill="white"/>
</clipPath>
</defs>
</svg>
