<svg width="16" height="12" viewBox="0 0 16 12" fill="none" xmlns="http://www.w3.org/2000/svg">
<path d="M8 7.125C8.62132 7.125 9.125 6.62132 9.125 6C9.125 5.37868 8.62132 4.875 8 4.875C7.37868 4.875 6.875 5.37868 6.875 6C6.875 6.62132 7.37868 7.125 8 7.125Z" fill="#5D6C7B"/>
<path d="M15.4016 5.62503C14.9216 4.79253 12.2816 0.615026 7.79657 0.750026C3.64907 0.855026 1.24907 4.50003 0.596575 5.62503C0.530749 5.73904 0.496094 5.86837 0.496094 6.00003C0.496094 6.13168 0.530749 6.26101 0.596575 6.37503C1.06907 7.19253 3.59658 11.25 8.01408 11.25H8.20158C12.3491 11.145 14.7566 7.50003 15.4016 6.37503C15.4674 6.26101 15.5021 6.13168 15.5021 6.00003C15.5021 5.86837 15.4674 5.73904 15.4016 5.62503ZM7.99907 8.62503C7.4799 8.62503 6.97238 8.47107 6.5407 8.18263C6.10902 7.8942 5.77257 7.48423 5.57389 7.00457C5.37521 6.52491 5.32323 5.99711 5.42451 5.48791C5.5258 4.97871 5.77581 4.51098 6.14292 4.14387C6.51003 3.77676 6.97776 3.52675 7.48696 3.42546C7.99616 3.32418 8.52396 3.37616 9.00362 3.57484C9.48327 3.77352 9.89324 4.10998 10.1817 4.54165C10.4701 4.97333 10.6241 5.48085 10.6241 6.00003C10.6241 6.69622 10.3475 7.3639 9.85523 7.85618C9.36295 8.34846 8.69527 8.62503 7.99907 8.62503Z" fill="#5D6C7B"/>
</svg>
