<svg width="26" height="11" viewBox="0 0 26 11" fill="none" xmlns="http://www.w3.org/2000/svg">
<path fill-rule="evenodd" clip-rule="evenodd" d="M12.0946 8.65901V5.7177H13.6127C14.2347 5.7177 14.7598 5.50926 15.1878 5.09817L15.2905 4.99395C16.0724 4.14283 16.021 2.81692 15.1878 2.02948C14.7712 1.6126 14.2005 1.38679 13.6127 1.39837H11.1758V8.65901H12.0946ZM12.0947 4.82599V2.28998H13.6359C13.9669 2.28998 14.2809 2.41736 14.5149 2.64896C15.0115 3.13532 15.0229 3.94591 14.5434 4.44964C14.3094 4.69861 13.9783 4.83757 13.6359 4.82599H12.0947ZM19.5765 4.07918C19.1828 3.71441 18.6463 3.52913 17.9672 3.52913C17.094 3.52913 16.4377 3.85337 16.0039 4.49606L16.8143 5.01137C17.1111 4.57133 17.5163 4.35131 18.0299 4.35131C18.3552 4.35131 18.6691 4.4729 18.9145 4.69292C19.1542 4.90136 19.2912 5.20244 19.2912 5.52088V5.73511C18.9373 5.53825 18.4922 5.43403 17.9443 5.43403C17.3051 5.43403 16.7915 5.58457 16.4091 5.89144C16.0268 6.19831 15.8327 6.60361 15.8327 7.11892C15.8213 7.58791 16.0211 8.03374 16.3749 8.33482C16.7344 8.65906 17.191 8.82117 17.7275 8.82117C18.3609 8.82117 18.8632 8.53747 19.2455 7.97005H19.2855V8.65906H20.1644V5.59615C20.1644 4.95347 19.9703 4.44395 19.5765 4.07918ZM17.0827 7.74397C16.8944 7.60501 16.7802 7.3792 16.7802 7.13602C16.7802 6.86389 16.9058 6.63808 17.1512 6.45859C17.4024 6.27911 17.7163 6.18647 18.0873 6.18647C18.601 6.18068 19.0006 6.29648 19.286 6.52807C19.286 6.92179 19.1319 7.2634 18.8294 7.5529C18.5554 7.83082 18.1844 7.98715 17.7962 7.98715C17.5394 7.99294 17.2882 7.90609 17.0827 7.74397ZM22.139 10.8419L25.2094 3.69124H24.2106L22.7896 7.25787H22.7725L21.3172 3.69124H20.3185L22.333 8.3406L21.1916 10.8419H22.139Z" fill="#282739"/>
<path d="M8.92012 5.08118C8.92012 4.79747 8.89729 4.51376 8.85163 4.23584H4.97656V5.83967H7.1966C7.10528 6.35497 6.80852 6.81817 6.37478 7.10767V8.14987H7.69881C8.47497 7.42612 8.92012 6.35497 8.92012 5.08118Z" fill="#4285F4"/>
<path d="M4.97821 9.15737C6.08537 9.15737 7.02133 8.78681 7.70046 8.14991L6.37643 7.10771C6.00548 7.36247 5.53179 7.50722 4.97821 7.50722C3.90529 7.50722 2.99787 6.77189 2.67257 5.7876H1.30859V6.86453C2.00485 8.2715 3.4259 9.15737 4.97821 9.15737Z" fill="#34A853"/>
<path d="M2.67232 5.78735C2.50108 5.27204 2.50108 4.71041 2.67232 4.18931V3.11816H1.30813C0.720208 4.29353 0.720208 5.68313 1.30813 6.85849L2.67232 5.78735Z" fill="#FBBC04"/>
<path d="M4.97821 2.46973C5.56604 2.45815 6.13103 2.68396 6.55335 3.09505L7.729 1.90231C6.98138 1.19594 5.99977 0.808008 4.97821 0.819588C3.4259 0.819588 2.00485 1.71125 1.30859 3.11821L2.67257 4.19515C2.99787 3.20506 3.90529 2.46973 4.97821 2.46973Z" fill="#EA4335"/>
</svg>
