<svg width="22" height="14" viewBox="0 0 22 14" fill="none" xmlns="http://www.w3.org/2000/svg">
<path d="M13.3463 7.12334C13.3463 10.8352 10.3718 13.8443 6.70247 13.8443C3.03316 13.8443 0.0585938 10.8352 0.0585938 7.12334C0.0585938 3.41144 3.03316 0.402344 6.70247 0.402344C10.3718 0.402344 13.3463 3.41144 13.3463 7.12334Z" fill="#ED0006"/>
<path d="M21.9635 7.12334C21.9635 10.8352 18.989 13.8443 15.3197 13.8443C11.6503 13.8443 8.67578 10.8352 8.67578 7.12334C8.67578 3.41144 11.6503 0.402344 15.3197 0.402344C18.989 0.402344 21.9635 3.41144 21.9635 7.12334Z" fill="#0099DF"/>
<path fill-rule="evenodd" clip-rule="evenodd" d="M11.014 12.2391C12.4425 11.0064 13.3483 9.17204 13.3483 7.12371C13.3483 5.07537 12.4425 3.24106 11.014 2.0083C9.58549 3.24106 8.67969 5.07537 8.67969 7.12371C8.67969 9.17204 9.58549 11.0064 11.014 12.2391Z" fill="#6C6BBD"/>
</svg>
