<svg width="23" height="14" viewBox="0 0 23 14" fill="none" xmlns="http://www.w3.org/2000/svg">
<path fill-rule="evenodd" clip-rule="evenodd" d="M11.0666 12.2389C9.90644 13.24 8.40156 13.8443 6.75715 13.8443C3.08784 13.8443 0.113281 10.8352 0.113281 7.12334C0.113281 3.41144 3.08784 0.402344 6.75715 0.402344C8.40168 0.402344 9.90666 1.00678 11.0668 2.00802C12.227 1.00691 13.7318 0.402563 15.3763 0.402563C19.0456 0.402563 22.0201 3.41166 22.0201 7.12356C22.0201 10.8355 19.0456 13.8446 15.3763 13.8446C13.7317 13.8446 12.2268 13.2401 11.0666 12.2389Z" fill="#ED0006"/>
<path fill-rule="evenodd" clip-rule="evenodd" d="M11.0664 12.2393C12.4949 11.0065 13.4008 9.17219 13.4008 7.12383C13.4008 5.07547 12.4949 3.24113 11.0664 2.00837C12.2266 1.00721 13.7315 0.402832 15.3759 0.402832C19.0452 0.402832 22.0198 3.41193 22.0198 7.12383C22.0198 10.8357 19.0452 13.8448 15.3759 13.8448C13.7315 13.8448 12.2266 13.2404 11.0664 12.2393Z" fill="#F9A000"/>
<path fill-rule="evenodd" clip-rule="evenodd" d="M11.0687 12.2391C12.4972 11.0064 13.403 9.17204 13.403 7.12371C13.403 5.07537 12.4972 3.24106 11.0687 2.0083C9.64017 3.24106 8.73438 5.07537 8.73438 7.12371C8.73438 9.17204 9.64017 11.0064 11.0687 12.2391Z" fill="#FF5E00"/>
</svg>
