<svg width="25" height="9" viewBox="0 0 25 9" fill="none" xmlns="http://www.w3.org/2000/svg">
<path fill-rule="evenodd" clip-rule="evenodd" d="M6.23721 8.14591H4.17279L2.62472 2.23995C2.55125 1.96828 2.39523 1.72811 2.16574 1.61491C1.59302 1.33044 0.961914 1.10404 0.273438 0.989861V0.762481H3.59906C4.05804 0.762481 4.40228 1.10404 4.45966 1.50073L5.26288 5.76089L7.32629 0.762481H9.33334L6.23721 8.14591ZM10.4808 8.14591H8.53116L10.1366 0.762481H12.0863L10.4808 8.14591ZM14.6086 2.808C14.666 2.41034 15.0102 2.18296 15.4118 2.18296C16.0429 2.12586 16.7304 2.24005 17.3041 2.52353L17.6484 0.933846C17.0746 0.706467 16.4435 0.592285 15.8708 0.592285C13.9785 0.592285 12.6015 1.615 12.6015 3.0344C12.6015 4.1142 13.5769 4.68117 14.2654 5.02274C15.0102 5.36331 15.2971 5.59069 15.2397 5.93127C15.2397 6.44213 14.666 6.66951 14.0932 6.66951C13.4048 6.66951 12.7163 6.49923 12.0862 6.21476L11.742 7.80543C12.4304 8.08891 13.1753 8.20309 13.8637 8.20309C15.9855 8.2592 17.3041 7.23747 17.3041 5.70389C17.3041 3.77264 14.6086 3.65944 14.6086 2.808ZM24.1276 8.14591L22.5795 0.762481H20.9167C20.5724 0.762481 20.2282 0.989861 20.1135 1.33044L17.2468 8.14591H19.2539L19.6545 7.06709H22.1205L22.35 8.14591H24.1276ZM21.2035 2.75088L21.7763 5.53357H20.1708L21.2035 2.75088Z" fill="#172B85"/>
</svg>
