<svg width="24" height="16" viewBox="0 0 24 16" fill="none" xmlns="http://www.w3.org/2000/svg">
<path fill-rule="evenodd" clip-rule="evenodd" d="M7.54714 12.0489C7.69967 11.9697 7.95894 11.8657 8.2336 11.8657C8.86404 11.8657 9.20479 12.2914 9.20479 13.0835C9.20479 14.0089 8.7473 14.4594 8.00994 14.4594C7.74032 14.4594 7.32338 14.3752 7.01824 14.2166V10.762L7.54714 10.6382V12.0489ZM7.54209 14.0336C7.70469 14.103 7.88276 14.1128 8.00992 14.1128C8.38621 14.1128 8.67094 13.8852 8.67094 13.0836C8.67094 12.4548 8.43702 12.2519 8.09635 12.2519C7.89283 12.2519 7.74552 12.3063 7.54209 12.4152V14.0336ZM2.12622 11.9298H2.16184L2.85324 14.3998H3.40238L4.22626 10.8904H3.63126L3.11261 13.5089H3.07718L2.37021 10.8904H1.91767L1.25665 13.5089H1.22104L0.651491 10.8904H0.0820312L0.905823 14.3998H1.45487L2.12622 11.9298ZM6.47957 14.2315V13.8554C6.19988 14.0187 5.94572 14.1127 5.67116 14.1127C5.14738 14.1127 4.89827 13.8503 4.89827 13.2564H6.55583V13.0734C6.55583 12.2667 6.16426 11.8657 5.52879 11.8657C4.76606 11.8657 4.37449 12.4102 4.37449 13.1624C4.37449 13.9446 4.72533 14.4594 5.57951 14.4594C5.94572 14.4594 6.25078 14.3604 6.47957 14.2315ZM6.07281 12.9249H4.90862C4.96438 12.4301 5.20324 12.1974 5.5136 12.1974C5.78817 12.1974 6.04763 12.4051 6.07281 12.9249ZM11.544 13.6573H11.5184L10.3794 10.8904H9.7642V14.3998H10.2219V11.9151H10.2676L11.305 14.3998H11.6303L12.6677 11.8557H12.7136V14.3998H13.2627V10.8904H12.6321L11.544 13.6573ZM13.8222 13.1624C13.8222 12.2962 14.3103 11.8657 14.9815 11.8657C15.6528 11.8657 16.141 12.2962 16.141 13.1624C16.141 14.0089 15.6782 14.4594 14.9815 14.4594C14.2848 14.4594 13.8222 14.0089 13.8222 13.1624ZM15.6068 13.1625C15.6068 12.4944 15.327 12.2124 14.9813 12.2124C14.6457 12.2124 14.3559 12.4944 14.3559 13.1625C14.3559 13.8409 14.6204 14.1128 14.9813 14.1128C15.3423 14.1128 15.6068 13.8409 15.6068 13.1625ZM17.9204 11.8657C17.3359 11.8657 16.8527 12.0983 16.6239 12.232V14.4H17.1528V12.4399C17.3103 12.3509 17.5697 12.2616 17.7732 12.2616C18.0325 12.2616 18.2306 12.331 18.2306 12.722V14.4H18.7594V12.608C18.7594 12.0983 18.5308 11.8657 17.9204 11.8657ZM21.3373 13.8554V14.2315C21.1086 14.3604 20.8036 14.4594 20.4373 14.4594C19.5832 14.4594 19.2323 13.9446 19.2323 13.1624C19.2323 12.4102 19.624 11.8657 20.3866 11.8657C21.0224 11.8657 21.414 12.2667 21.414 13.0734V13.2564H19.7563C19.7563 13.8503 20.0054 14.1127 20.5291 14.1127C20.8036 14.1127 21.0579 14.0187 21.3373 13.8554ZM19.7663 12.9249H20.9307C20.9054 12.4051 20.6459 12.1974 20.3713 12.1974C20.0611 12.1974 19.8224 12.4301 19.7663 12.9249ZM23.9361 11.9498H23.392L22.8121 13.7712H22.7818L22.1309 11.9498H21.5716L22.5479 14.4247C22.4257 14.7908 22.2123 15.0584 21.8665 15.0584V15.464C22.451 15.464 22.7613 15.1078 23.0156 14.4247L23.9361 11.9498Z" fill="#0068A3"/>
<path fill-rule="evenodd" clip-rule="evenodd" d="M11.6676 0.515625C12.3674 0.515625 13.0301 0.674246 13.6203 0.95586C13.713 0.998667 13.8055 1.04576 13.8982 1.09776L13.4879 1.45518L12.8715 0.834793L11.8312 1.73802L11.2133 1.08157L9.27527 2.78193L10.5177 4.11472L10.0295 4.53272L11.2532 5.86752L10.7678 6.28455L12.5165 8.17917L13.5545 7.24897L14.4519 8.24578C14.2734 8.38086 14.079 8.50797 13.8648 8.62544C13.2158 8.98567 12.4658 9.19191 11.6676 9.19191C9.21295 9.19191 7.21094 7.24293 7.21094 4.8539C7.21094 2.46434 9.21295 0.515625 11.6676 0.515625ZM10.8555 4.57949L11.9153 3.65052L12.8696 4.68234L11.8099 5.61096L10.8555 4.57949ZM12.6689 5.4333L11.609 6.362L12.5635 7.39383L13.6233 6.46486L12.6689 5.4333ZM10.0971 2.81784L11.1569 1.88913L12.1109 2.92069L11.0511 3.8494L10.0971 2.81784ZM12.8367 1.62148L12.0419 2.31794L12.7575 3.09187L13.5523 2.39515L12.8367 1.62148ZM13.4541 5.50867L14.2492 4.81194L14.9648 5.58579L14.17 6.28234L13.4541 5.50867ZM14.9481 6.37461L14.1534 7.07142L14.869 7.84483L15.6639 7.14828L14.9481 6.37461ZM14.4735 3.48975L15.0034 3.02536L15.4804 3.54114L14.9508 4.00545L14.4735 3.48975ZM14.3264 1.49288L13.7965 1.95719L14.2735 2.47297L14.8035 2.00866L14.3264 1.49288ZM15.1509 5.02223L15.6808 4.55784L16.1579 5.07353L15.628 5.53793L15.1509 5.02223ZM13.5692 3.17701L12.7745 3.87383L13.4903 4.64724L14.2848 3.95068L13.5692 3.17701Z" fill="#0068A3"/>
</svg>
