<svg width="20" height="12" viewBox="0 0 20 12" fill="none" xmlns="http://www.w3.org/2000/svg">
<path d="M16.5958 6.85699C16.2725 6.44866 16.365 6.26699 16.5958 5.90199C16.6 5.89783 19.2692 2.20949 19.5442 0.958659L19.5458 0.957826C19.6825 0.501992 19.5458 0.166992 18.885 0.166992H16.6983C16.1417 0.166992 15.885 0.454492 15.7475 0.776159C15.7475 0.776159 14.6342 3.44116 13.0592 5.16866C12.5508 5.66783 12.3158 5.82783 12.0383 5.82783C11.9017 5.82783 11.6892 5.66783 11.6892 5.21199V0.957826C11.6892 0.411159 11.5333 0.166992 11.0725 0.166992H7.63417C7.285 0.166992 7.0775 0.421992 7.0775 0.659492C7.0775 1.17783 7.865 1.29699 7.94667 2.75533V5.91949C7.94667 6.61283 7.82083 6.74033 7.54167 6.74033C6.79833 6.74033 4.99417 4.06449 3.925 1.00199C3.70917 0.407825 3.49833 0.167825 2.9375 0.167825H0.75C0.125833 0.167825 0 0.455325 0 0.776992C0 1.34533 0.743333 4.17116 3.45667 7.90449C5.265 10.4528 7.81167 11.8337 10.1283 11.8337C11.5208 11.8337 11.6908 11.527 11.6908 10.9995C11.6908 8.56449 11.565 8.33449 12.2625 8.33449C12.5858 8.33449 13.1425 8.49449 14.4425 9.72366C15.9283 11.1812 16.1725 11.8337 17.0042 11.8337H19.1908C19.8142 11.8337 20.13 11.527 19.9483 10.922C19.5325 9.64949 16.7225 7.03199 16.5958 6.85699Z" fill="#4B729F"/>
</svg>
